<?xml version="1.0" encoding="UTF-8" standalone="no"?>
<svg
   version="1.0"
   width="1280.000000pt"
   height="1231.000000pt"
   viewBox="0 0 1280.000000 1231.000000"
   preserveAspectRatio="xMidYMid meet"
   id="svg8"
   sodipodi:docname="perfil.svg"
   inkscape:version="1.1.1 (3bf5ae0d25, 2021-09-20)"
   xmlns:inkscape="http://www.inkscape.org/namespaces/inkscape"
   xmlns:sodipodi="http://sodipodi.sourceforge.net/DTD/sodipodi-0.dtd"
   xmlns="http://www.w3.org/2000/svg"
   xmlns:svg="http://www.w3.org/2000/svg">
  <defs
     id="defs12" />
  <sodipodi:namedview
     id="namedview10"
     pagecolor="#ffffff"
     bordercolor="#666666"
     borderopacity="1.0"
     inkscape:pageshadow="2"
     inkscape:pageopacity="0.0"
     inkscape:pagecheckerboard="0"
     inkscape:document-units="pt"
     showgrid="false"
     inkscape:zoom="0.31864338"
     inkscape:cx="852.04971"
     inkscape:cy="979.15105"
     inkscape:window-width="1366"
     inkscape:window-height="694"
     inkscape:window-x="0"
     inkscape:window-y="0"
     inkscape:window-maximized="1"
     inkscape:current-layer="g6" />
  <metadata
     id="metadata2">
Created by potrace 1.15, written by Peter Selinger 2001-2017
</metadata>
  <g
     transform="translate(0.000000,1231.000000) scale(0.100000,-0.100000)"
     fill="#000000"
     stroke="none"
     id="g6">
    <ellipse
       style="fill:#ffffff;stroke-width:7.10831"
       id="path30"
       cx="6434.3237"
       cy="-5650.2979"
       transform="scale(1,-1)"
       rx="6380.3262"
       ry="5694.3125" />
    <path
       d="m 6319.7608,10762.715 c -14.0449,-1.511 -62.0928,-6.796 -107.1839,-11.327 -517.4394,-50.594 -1057.0549,-266.563 -1478.3984,-591.273 -172.2336,-132.148 -394.7324,-351.138 -522.614,-514.2469 -524.0921,-667.5406 -751.0263,-1505.7432 -633.4937,-2340.9244 100.5311,-714.3594 446.4763,-1372.0834 967.6118,-1841.0233 104.2271,-93.637 251.3277,-207.6627 353.3372,-275.625 l 68.7456,-45.3081 -39.1775,-9.0617 c -104.9664,-24.9195 -348.902,-94.3922 -464.2172,-132.9041 C 3232.1255,4594.758 2323.6499,3844.9072 1962.1812,2937.233 c -110.8797,-278.6455 -173.7117,-595.0479 -173.7117,-876.7137 0,-79.2894 24.3936,-481.7773 34.0032,-556.5358 l 3.6959,-32.4709 h 4693.1759 4693.1745 l 3.697,32.4709 c 9.609,74.0034 34.003,476.4913 34.003,552.7601 0,238.6232 -44.353,504.4313 -123.446,740.0339 -322.292,963.5544 -1231.5065,1756.4479 -2511.7986,2189.8964 -141.9262,48.3288 -414.6908,128.3732 -491.5675,143.4761 -14.0447,3.0205 -30.3071,7.5512 -35.4815,10.5719 -5.1745,3.0205 30.3071,32.4708 96.0959,78.5342 277.9388,191.8047 510.7865,418.3457 709.6314,688.6846 71.7019,97.4126 136.7517,197.8458 178.1468,272.6044 17.7411,32.4708 48.7869,88.3509 68.0063,123.8424 50.2651,89.1061 119.7496,247.6848 169.2758,382.8544 178.887,494.6144 226.9343,1037.5578 137.4915,1569.174 -54.7005,325.4652 -178.8866,679.6238 -340.7704,973.3714 -62.0926,111.7606 -184.0606,295.2588 -269.8077,404.754 -102.0095,130.6378 -325.9869,359.4442 -453.8683,463.6527 -103.4879,84.576 -285.331,210.683 -388.0796,270.339 -278.6782,160.844 -583.2283,277.891 -894.4311,342.078 -184.7999,38.511 -303.0718,49.838 -535.9196,52.859 -119.7501,1.509 -229.8909,0.754 -243.9356,-0.755 z"
       id="path4"
       style="opacity:1;fill:#999999;stroke-width:0.747125" />
  </g>
</svg>
